<svg height="512" viewBox="0 0 64 64" width="512" xmlns="http://www.w3.org/2000/svg"><g id="_13-nerd" data-name="13-nerd"><path d="m24 4h4v4h-4z" fill="#fec42e"/><path d="m28 4h4v4h-4z" fill="#fec42e"/><path d="m32 4h4v4h-4z" fill="#ed7604"/><path d="m36 4h4v4h-4z" fill="#ed7604"/><path d="m16 8h4v4h-4z" fill="#fec42e"/><path d="m12 12h4v4h-4z" fill="#fec42e"/><path d="m16 12h4v4h-4z" fill="#fec42e"/><path d="m20 12h4v4h-4z" fill="#fec42e"/><path d="m24 12h4v4h-4z" fill="#fec42e"/><path d="m28 12h4v4h-4z" fill="#fec42e"/><path d="m32 12h4v4h-4z" fill="#fec42e"/><path d="m36 12h4v4h-4z" fill="#fec42e"/><path d="m40 12h4v4h-4z" fill="#fec42e"/><path d="m44 12h4v4h-4z" fill="#fec42e"/><path d="m48 12h4v4h-4z" fill="#ed7604"/><path d="m8 16h4v4h-4z" fill="#fec42e"/><path d="m12 16h4v4h-4z" fill="#fec42e"/><path d="m16 16h4v4h-4z" fill="#fec42e"/><path d="m20 16h4v4h-4z" fill="#fec42e"/><path d="m24 16h4v4h-4z" fill="#fec42e"/><path d="m28 16h4v4h-4z" fill="#fec42e"/><path d="m32 16h4v4h-4z" fill="#fec42e"/><path d="m36 16h4v4h-4z" fill="#fec42e"/><path d="m40 16h4v4h-4z" fill="#fec42e"/><path d="m44 16h4v4h-4z" fill="#fec42e"/><path d="m48 16h4v4h-4z" fill="#fec42e"/><path d="m52 16h4v4h-4z" fill="#ed7604"/><path d="m8 20h4v4h-4z" fill="#fec42e"/><path d="m28 20h4v4h-4z" fill="#fec42e"/><path d="m32 20h4v4h-4z" fill="#fec42e"/><path d="m52 20h4v4h-4z" fill="#ed7604"/><path d="m4 24h4v4h-4z" fill="#fec42e"/><path d="m8 24h4v4h-4z" fill="#fec42e"/><path d="m28 24h4v4h-4z" fill="#fec42e"/><path d="m32 24h4v4h-4z" fill="#fec42e"/><path d="m52 24h4v4h-4z" fill="#fec42e"/><path d="m56 24h4v4h-4z" fill="#fec42e"/><path d="m4 28h4v4h-4z" fill="#fec42e"/><path d="m8 28h4v4h-4z" fill="#fec42e"/><path d="m12 28h4v4h-4z" fill="#fec42e"/><path d="m24 28h4v4h-4z" fill="#fec42e"/><path d="m28 28h4v4h-4z" fill="#fec42e"/><path d="m32 28h4v4h-4z" fill="#fec42e"/><path d="m36 28h4v4h-4z" fill="#fec42e"/><path d="m12 20h4v4h-4z" fill="#ebf2e9"/><path d="m16 20h4v4h-4z" fill="#ebf2e9"/><path d="m20 20h4v4h-4z" fill="#ebf2e9"/><path d="m24 20h4v4h-4z" fill="#ebf2e9"/><path d="m36 20h4v4h-4z" fill="#ebf2e9"/><path d="m40 20h4v4h-4z" fill="#ebf2e9"/><path d="m44 20h4v4h-4z" fill="#ebf2e9"/><path d="m48 20h4v4h-4z" fill="#ebf2e9"/><path d="m12 24h4v4h-4z" fill="#ebf2e9"/><path d="m16 24h4v4h-4z" fill="#ebf2e9"/><path d="m20 24h4v4h-4z" fill="#ebf2e9"/><path d="m24 24h4v4h-4z" fill="#ebf2e9"/><path d="m36 24h4v4h-4z" fill="#ebf2e9"/><path d="m40 24h4v4h-4z" fill="#ebf2e9"/><path d="m44 24h4v4h-4z" fill="#ebf2e9"/><path d="m48 24h4v4h-4z" fill="#ebf2e9"/><path d="m16 28h4v4h-4z" fill="#ebf2e9"/><path d="m20 28h4v4h-4z" fill="#ebf2e9"/><path d="m40 28h4v4h-4z" fill="#ebf2e9"/><path d="m44 28h4v4h-4z" fill="#ebf2e9"/><g fill="#fec42e"><path d="m48 28h4v4h-4z"/><path d="m52 28h4v4h-4z"/><path d="m56 28h4v4h-4z"/><path d="m4 32h4v4h-4z"/><path d="m8 32h4v4h-4z"/><path d="m12 32h4v4h-4z"/><path d="m16 32h4v4h-4z"/><path d="m20 32h4v4h-4z"/><path d="m24 32h4v4h-4z"/><path d="m28 32h4v4h-4z"/><path d="m32 32h4v4h-4z"/><path d="m36 32h4v4h-4z"/><path d="m40 32h4v4h-4z"/><path d="m44 32h4v4h-4z"/><path d="m48 32h4v4h-4z"/><path d="m52 32h4v4h-4z"/><path d="m56 32h4v4h-4z"/><path d="m4 36h4v4h-4z"/><path d="m8 36h4v4h-4z"/><path d="m12 36h4v4h-4z"/><path d="m16 36h4v4h-4z"/><path d="m20 36h4v4h-4z"/><path d="m24 36h4v4h-4z"/><path d="m28 36h4v4h-4z"/><path d="m32 36h4v4h-4z"/><path d="m36 36h4v4h-4z"/><path d="m40 36h4v4h-4z"/><path d="m44 36h4v4h-4z"/><path d="m48 36h4v4h-4z"/><path d="m52 36h4v4h-4z"/><path d="m56 36h4v4h-4z"/><path d="m8 40h4v4h-4z"/><path d="m12 40h4v4h-4z"/><path d="m16 40h4v4h-4z"/><path d="m20 40h4v4h-4z"/><path d="m24 40h4v4h-4z"/><path d="m28 40h4v4h-4z"/><path d="m32 40h4v4h-4z"/><path d="m36 40h4v4h-4z"/><path d="m40 40h4v4h-4z"/><path d="m44 40h4v4h-4z"/><path d="m48 40h4v4h-4z"/><path d="m52 40h4v4h-4z"/><path d="m8 44h4v4h-4z"/><path d="m12 44h4v4h-4z"/><path d="m16 44h4v4h-4z"/><path d="m20 44h4v4h-4z"/><path d="m24 44h4v4h-4z"/><path d="m28 44h4v4h-4z"/><path d="m32 44h4v4h-4z"/><path d="m36 44h4v4h-4z"/><path d="m40 44h4v4h-4z"/><path d="m44 44h4v4h-4z"/><path d="m48 44h4v4h-4z"/><path d="m52 44h4v4h-4z"/><path d="m12 48h4v4h-4z"/><path d="m16 48h4v4h-4z"/><path d="m20 48h4v4h-4z"/><path d="m24 48h4v4h-4z"/><path d="m28 48h4v4h-4z"/><path d="m32 48h4v4h-4z"/><path d="m36 48h4v4h-4z"/><path d="m40 48h4v4h-4z"/><path d="m44 48h4v4h-4z"/><path d="m48 48h4v4h-4z"/><path d="m16 52h4v4h-4z"/><path d="m20 52h4v4h-4z"/><path d="m24 52h4v4h-4z"/><path d="m28 52h4v4h-4z"/><path d="m32 52h4v4h-4z"/><path d="m36 52h4v4h-4z"/><path d="m40 52h4v4h-4z"/><path d="m44 52h4v4h-4z"/><path d="m24 56h4v4h-4z"/><path d="m28 56h4v4h-4z"/><path d="m32 56h4v4h-4z"/><path d="m36 56h4v4h-4z"/><path d="m20 8h4v4h-4z"/><path d="m24 8h4v4h-4z"/><path d="m28 8h4v4h-4z"/><path d="m32 8h4v4h-4z"/><path d="m36 8h4v4h-4z"/></g><path d="m40 8h4v4h-4z" fill="#ed7604"/><path d="m44 8h4v4h-4z" fill="#ed7604"/><path d="m32 0h4v4h-4z"/><path d="m36 0h4v4h-4z"/><path d="m28 0h4v4h-4z"/><path d="m24 0h4v4h-4z"/><path d="m20 4h4v4h-4z"/><path d="m16 4h4v4h-4z"/><path d="m44 4h4v4h-4z"/><path d="m40 4h4v4h-4z"/><path d="m32 60h4v4h-4z"/><path d="m36 60h4v4h-4z"/><path d="m28 60h4v4h-4z"/><path d="m24 60h4v4h-4z"/><path d="m20 56h4v4h-4z"/><path d="m16 56h4v4h-4z"/><path d="m44 56h4v4h-4z"/><path d="m40 56h4v4h-4z"/><path d="m60 32h4v4h-4z" transform="matrix(0 1 -1 0 96 -28)"/><path d="m60 36h4v4h-4z" transform="matrix(0 1 -1 0 100 -24)"/><path d="m60 28h4v4h-4z" transform="matrix(0 1 -1 0 92 -32)"/><path d="m60 24h4v4h-4z" transform="matrix(0 1 -1 0 88 -36)"/><path d="m56 20h4v4h-4z" transform="matrix(0 1 -1 0 80 -36)"/><path d="m56 16h4v4h-4z" transform="matrix(0 1 -1 0 76 -40)"/><path d="m56 44h4v4h-4z" transform="matrix(0 1 -1 0 104 -12)"/><path d="m56 40h4v4h-4z" transform="matrix(0 1 -1 0 100 -16)"/><path d="m0 32h4v4h-4z" transform="matrix(0 1 -1 0 36 32)"/><path d="m0 36h4v4h-4z" transform="matrix(0 1 -1 0 40 36)"/><path d="m0 28h4v4h-4z" transform="matrix(0 1 -1 0 32 28)"/><path d="m0 24h4v4h-4z" transform="matrix(0 1 -1 0 28 24)"/><path d="m4 20h4v4h-4z" transform="matrix(0 1 -1 0 28 16)"/><path d="m4 16h4v4h-4z" transform="matrix(0 1 -1 0 24 12)"/><path d="m4 44h4v4h-4z" transform="matrix(0 1 -1 0 52 40)"/><path d="m4 40h4v4h-4z" transform="matrix(0 1 -1 0 48 36)"/><path d="m12 8h4v4h-4z"/><path d="m48 8h4v4h-4z"/><path d="m8 12h4v4h-4z"/><path d="m8 48h4v4h-4z"/><path d="m12 52h4v4h-4z"/><path d="m48 52h4v4h-4z"/><path d="m52 48h4v4h-4z"/><path d="m52 12h4v4h-4z"/><path d="m20 40h4v4h-4z"/><path d="m24 40h4v4h-4z"/><path d="m28 40h4v4h-4z"/><path d="m32 40h4v4h-4z"/><path d="m36 40h4v4h-4z"/><path d="m40 40h4v4h-4z"/><path d="m12 16h4v4h-4z"/><path d="m8 20h4v4h-4z"/><path d="m20 32h4v4h-4z"/><path d="m16 32h4v4h-4z"/><path d="m8 24h4v4h-4z"/><path d="m12 28h4v4h-4z"/><path d="m16 16h4v4h-4z"/><path d="m20 16h4v4h-4z"/><path d="m24 28h4v4h-4z"/><path d="m28 24h4v4h-4z"/><path d="m24 16h4v4h-4z"/><path d="m28 20h4v4h-4z"/><path d="m36 16h4v4h-4z"/><path d="m32 20h4v4h-4z"/><path d="m44 32h4v4h-4z"/><path d="m40 32h4v4h-4z"/><path d="m32 24h4v4h-4z"/><path d="m36 28h4v4h-4z"/><path d="m40 16h4v4h-4z"/><path d="m44 16h4v4h-4z"/><path d="m48 28h4v4h-4z"/><path d="m52 24h4v4h-4z"/><path d="m48 16h4v4h-4z"/><path d="m52 20h4v4h-4z"/></g></svg>