<svg id="Capa_1" enable-background="new 0 0 512.001 512.001" height="150" viewBox="0 0 512.001 512.001" width="150" xmlns="http://www.w3.org/2000/svg"><path d="m506.882 214.715-241-211c-5.656-4.952-14.105-4.952-19.762 0l-241 211c-4.701 4.116-6.358 10.715-4.16 16.563 2.199 5.849 7.793 9.722 14.041 9.722h46v256c0 8.284 6.716 15 15 15h360c8.284 0 15-6.716 15-15v-256h46c6.248 0 11.842-3.874 14.041-9.722 2.198-5.848.541-12.447-4.16-16.563z" fill="#e0f4fe"/><path d="m511.041 231.281c-2.2 5.85-7.79 9.72-14.04 9.72h-46v256c0 8.28-6.72 15-15 15h-180v-512c3.52 0 7.05 1.24 9.88 3.71l241 211c4.7 4.12 6.36 10.72 4.16 16.57z" fill="#bcdcfe"/><path d="m181.001 361.001c-33.084 0-60 26.916-60 60v15c0 8.284 6.716 15 15 15h90c8.284 0 15-6.716 15-15v-15c0-33.084-26.916-60-60-60z" fill="#960095"/><path d="m241.001 421.001v15c0 8.28-6.72 15-15 15h-45v-90c32.983 0 60 26.838 60 60z" fill="#6e0095"/><path d="m256.001 158.65c-27.277-19.252-65-.52-65 37.25 0 37.5 51.418 69.443 57.28 72.962 4.752 2.851 10.687 2.852 15.439 0 5.862-3.519 57.28-35.462 57.28-72.962.001-37.808-37.747-56.485-64.999-37.25z" fill="#fd4278"/><path d="m321.001 195.901c0 37.5-51.42 69.44-57.28 72.96-2.38 1.42-5.05 2.14-7.72 2.14v-112.35c27.25-19.24 65-.56 65 37.25z" fill="#e10371"/><path d="m331.001 361.001c-33.084 0-60 26.916-60 60v15c0 8.284 6.716 15 15 15h90c8.284 0 15-6.716 15-15v-15c0-33.084-26.916-60-60-60z" fill="#fcbe29"/><path d="m391.001 421.001v15c0 8.28-6.72 15-15 15h-45v-90c32.983 0 60 26.838 60 60z" fill="#fe9022"/><circle cx="181.001" cy="346.001" fill="#fecec0" r="45"/><path d="m226.001 346.001c0 24.716-20.106 45-45 45v-90c24.81 0 45 20.19 45 45z" fill="#feb99e"/><circle cx="331.001" cy="346.001" fill="#db7e66" r="45"/><path d="m376.001 346.001c0 24.716-20.107 45-45 45v-90c24.81 0 45 20.19 45 45z" fill="#b8533b"/></svg>