<svg fill="none" height="512" viewBox="0 0 32 32" width="512" xmlns="http://www.w3.org/2000/svg"><g id="poundsterling"><path id="Rectangle" d="m15.5 3h1c6.9036 0 12.5 5.59644 12.5 12.5v1c0 6.9036-5.5964 12.5-12.5 12.5h-1c-6.90356 0-12.5-5.5964-12.5-12.5v-1c0-6.90356 5.59644-12.5 12.5-12.5z" fill="#57a4ff"/><g id="Union" fill="#004fac"><path d="m14.2791 20h5.7209c.5523 0 1 .4477 1 1s-.4477 1-1 1h-8c-.9234 0-1.3534-1.1445-.6585-1.7526 1.0344-.9051 1.555-1.5749 1.7019-2.2474h-2.0434c-.5523 0-1-.4477-1-1s.4477-1 1-1h1.6319c-.5446-1.1505-.6319-1.3779-.6319-2 0-2.2091 1.7909-4 4-4 1.6021 0 3.0303.9509 3.6635 2.3923.2222.5057-.0077 1.0956-.5133 1.3178-.5057.2221-1.0956-.0077-1.3178-.5134-.3169-.7213-1.031-1.1967-1.8324-1.1967-1.1046 0-2 .8954-2 2 0 .1859.0631.3492.4438 1.1533.1372.2898.2545.5714.35.8467h2.2062c.5523 0 1 .4477 1 1s-.4477 1-1 1h-1.9315c-.0709.6662-.3229 1.3217-.7894 2z"/><path clip-rule="evenodd" d="m16.5 3h-1c-6.90356 0-12.5 5.59644-12.5 12.5v1c0 6.9036 5.59644 12.5 12.5 12.5h1c6.9036 0 12.5-5.5964 12.5-12.5v-1c0-6.90356-5.5964-12.5-12.5-12.5zm-11.5 12.5c0-5.79899 4.70101-10.5 10.5-10.5h1c5.799 0 10.5 4.70101 10.5 10.5v1c0 5.799-4.701 10.5-10.5 10.5h-1c-5.79899 0-10.5-4.701-10.5-10.5z" fill-rule="evenodd"/></g></g></svg>