<svg height="512pt" viewBox="-73 0 512 512" width="512pt" xmlns="http://www.w3.org/2000/svg"><path d="m365.410156 481.410156c0 8.441406-3.417968 16.097656-8.960937 21.628906-5.53125 5.542969-13.1875 8.960938-21.628907 8.960938h-304.230468c-16.894532 0-30.589844-13.695312-30.589844-30.589844 0-38.59375 15.640625-73.535156 40.9375-98.832031 25.296875-25.292969 60.234375-40.933594 98.832031-40.933594h85.871094c77.191406 0 139.769531 62.574219 139.769531 139.765625zm0 0" fill="#fed22b"/><path d="m77.191406 382.578125c-25.292968 25.296875-40.9375 60.238281-40.9375 98.832031 0 16.894532 13.695313 30.589844 30.589844 30.589844h-36.253906c-16.894532 0-30.589844-13.695312-30.589844-30.589844 0-38.59375 15.640625-73.535156 40.9375-98.832031 25.296875-25.292969 60.234375-40.933594 98.832031-40.933594h36.253907c-38.597657 0-73.535157 15.640625-98.832032 40.933594zm0 0" fill="#fdc202"/><path d="m225.640625 341.644531h-85.871094c-16.089843 0-31.542969 2.722657-45.921875 7.714844 9.65625 9.6875-2.683594-4.214844 81.089844 92.242187 2.503906 2.882813 5.09375 5.855469 7.765625 8.941407 2.675781-3.085938 5.265625-6.058594 7.769531-8.941407 83.769532-96.457031 71.433594-82.546874 81.078125-92.242187-14.378906-5.003906-29.824219-7.714844-45.910156-7.714844zm0 0" fill="#6dc54a"/><path d="m182.703125 450.542969-7.765625-2.921875-55.296875-20.800782c-4.109375-1.191406-4.433594-4.308593-8.121094-14.511718-1.386719-3.832032-5.664062-5.757813-9.457031-4.265625l-20.808594 8.234375c-4.144531 1.066406-8.296875-2.300782-7.738281-6.539063.125-.941406-1.046875 2.820313 20.332031-60.378906 9.65625 9.6875-2.683594-4.214844 81.089844 92.242187 2.503906 2.882813 5.09375 5.855469 7.765625 8.941407zm0 0" fill="#f76937"/><path d="m284.15625 416.277344-20.808594-8.234375c-3.792968-1.492188-8.070312.433593-9.457031 4.265625-3.6875 10.203125-4.011719 13.320312-8.121094 14.511718l-55.296875 20.800782-7.769531 2.921875c2.675781-3.085938 5.265625-6.058594 7.769531-8.941407 83.769532-96.457031 71.433594-82.546874 81.078125-92.242187 21.390625 63.199219 20.21875 59.4375 20.34375 60.378906.558594 4.238281-3.59375 7.605469-7.738281 6.539063zm0 0" fill="#f76937"/><path d="m104.941406 361.054688c-7.042968 4.152343-13.691406 8.929687-19.867187 14.234374 2.394531-7.066406 5.285156-15.601562 8.773437-25.929687 4.496094 4.507813 4.21875 3.90625 11.09375 11.695313zm0 0" fill="#ea552d"/><path d="m93.847656 349.359375c4.496094 4.507813 4.21875 3.90625 11.09375 11.695313 20.820313-12.335938 45.125-19.410157 71.082032-19.410157-38.667969 0-55.238282-1.574219-82.175782 7.714844zm0 0" fill="#5db33a"/><path d="m182.703125 391.496094c-19.257813 0-34.871094-15.613282-34.871094-34.875v-78.382813h69.746094v78.382813c0 19.261718-15.613281 34.875-34.875 34.875zm0 0" fill="#d6995c"/><path d="m322.878906 229.59375c0 22.097656-17.914062 40.007812-40.007812 40.007812-22.097656 0-40.007813-17.910156-40.007813-40.007812 0-22.09375 17.910157-40.007812 40.007813-40.007812 22.09375 0 40.007812 17.914062 40.007812 40.007812zm0 0" fill="#e3a76f"/><path d="m287.253906 151.832031v87.269531c0 28.289063-19.660156 53.917969-42.5625 72.460938-2.777344 2.246094-5.605468 4.390625-8.453125 6.421875-20.59375 14.738281-42.160156 23.597656-53.535156 23.597656-11.371094 0-32.9375-8.859375-53.53125-23.597656-26.289063-18.792969-51.015625-47.152344-51.015625-78.882813v-87.269531c0-54.03125 43.796875-97.828125 97.824219-97.828125h13.445312c54.03125 0 97.828125 43.796875 97.828125 97.828125zm0 0" fill="#e3a76f"/><path d="m190.472656 441.601562v70.398438h-15.535156v-70.398438c.867188 1 1.746094 2.011719 2.636719 3.035157 2.710937 3.109375 7.550781 3.109375 10.261719 0 .886718-1.023438 1.769531-2.035157 2.636718-3.035157zm0 0" fill="#f76937"/><path d="m165.425781 317.984375c12.246094 8.761719 24.820313 15.445313 35.40625 19.421875-7.21875 2.714844-13.519531 4.175781-18.128906 4.175781-11.371094 0-32.9375-8.859375-53.53125-23.597656-26.289063-18.792969-51.015625-47.152344-51.015625-78.882813v-87.269531c0-54.03125 43.796875-97.828125 97.824219-97.828125h13.445312c3.855469 0 7.667969.230469 11.40625.664063-48.652343 5.644531-86.421875 46.988281-86.421875 97.164062v87.269531c0 31.730469 24.726563 60.089844 51.015625 78.882813zm0 0" fill="#d6995c"/><g fill="#7c3f2c"><path d="m203.871094 277.328125c-4.292969 0-7.769532 3.476563-7.769532 7.765625 0 7.386719-6.011718 13.398438-13.398437 13.398438s-13.394531-6.011719-13.394531-13.398438c0-4.289062-3.480469-7.765625-7.769532-7.765625-4.292968 0-7.769531 3.476563-7.769531 7.765625 0 15.953125 12.980469 28.933594 28.933594 28.933594 15.957031 0 28.933594-12.976563 28.933594-28.933594 0-4.289062-3.476563-7.765625-7.765625-7.765625zm0 0"/><path d="m146.972656 230.839844c0 6.941406-5.632812 12.574218-12.574218 12.574218-6.945313 0-12.574219-5.632812-12.574219-12.574218 0-6.945313 5.628906-12.574219 12.574219-12.574219 6.941406 0 12.574218 5.628906 12.574218 12.574219zm0 0"/><path d="m144.429688 190.617188c-.722657-.082032-17.902344-1.875-37.03125 6.113281-3.960938 1.652343-5.828126 6.203125-4.175782 10.164062 1.242188 2.980469 4.128906 4.777344 7.171875 4.777344.996094 0 2.011719-.195313 2.992188-.601563 15.203125-6.347656 29.085937-5.035156 29.351562-5.007812 4.257813.457031 8.082031-2.613281 8.554688-6.867188.472656-4.261718-2.601563-8.105468-6.863281-8.578124zm0 0"/><path d="m243.585938 230.839844c0 6.941406-5.628907 12.574218-12.574219 12.574218-6.945313 0-12.574219-5.632812-12.574219-12.574218 0-6.945313 5.628906-12.574219 12.574219-12.574219 6.945312 0 12.574219 5.628906 12.574219 12.574219zm0 0"/><path d="m258.011719 196.730469c-19.132813-7.988281-36.308594-6.191407-37.03125-6.113281-4.253907.472656-7.308594 4.292968-6.851563 8.550781.457032 4.253906 4.28125 7.335937 8.539063 6.894531.140625-.011719 14.085937-1.367188 29.359375 5.007812.976562.40625 1.988281.601563 2.988281.601563 3.042969 0 5.929687-1.796875 7.171875-4.777344 1.652344-3.960937-.21875-8.511719-4.175781-10.164062zm0 0"/><path d="m228.761719 264.527344-21.085938-14.261719c-6.933593-4.6875-15.480469-3.367187-21.296875 3.289063-1.945312 2.226562-5.40625 2.226562-7.351562 0-5.8125-6.65625-14.359375-7.976563-21.292969-3.289063l-21.089844 14.261719c-5.417969 3.664062-11.886719 3.691406-17.277343.214844-.699219-.449219-1.605469.195312-1.425782 1.007812 7.117188 32.753906 52.785156 22.480469 64.761719 8.117188 13.160156 16.871093 57.679687 25.042968 64.769531-8.121094.171875-.8125-.730468-1.457032-1.429687-1.007813-5.390625 3.480469-11.859375 3.453125-17.28125-.210937zm0 0"/></g><path d="m200.8125 54.667969c-47.019531 5.46875-83.863281 44.261719-86.265625 92.152343-3.003906 5.3125-5.78125 11.269532-7.792969 17.691407-3.75 11.941406-14.707031 20.15625-27.230468 20.15625l-1.367188-1.054688v-31.78125c0-54.03125 43.796875-97.828125 97.824219-97.828125 13.144531 0 18.296875-.152344 24.832031.664063zm0 0" fill="#ae583e"/><path d="m227.246094 44.542969c0 24.597656-19.941406 44.539062-44.542969 44.539062-24.597656 0-44.539063-19.941406-44.539063-44.539062 0-24.601563 19.941407-44.542969 44.539063-44.542969 24.601563 0 44.542969 19.941406 44.542969 44.542969zm0 0" fill="#954c35"/><path d="m283.140625 37.792969c-3.726563-2.125-8.472656-.824219-10.59375 2.90625-2.296875 4.035156-5.597656 6.925781-9.371094 8.996093-12.1875 3.898438-13.230469 4.871094-22.917969 4.835938 12.632813-10.113281 25-24.371094 23.195313-40.601562-.472656-4.265626-4.304687-7.339844-8.578125-6.863282-4.265625.472656-7.335938 4.316406-6.863281 8.578125.398437 3.585938-.722657 7.28125-2.828125 10.925781l-12.484375 13.941407c-8.519531 7.195312-18.410157 13.019531-23.644531 15.601562-3.847657 1.894531-5.433594 6.550781-3.542969 10.398438 1.351562 2.746093 4.109375 4.34375 6.980469 4.34375 1.148437 0 2.316406-.257813 3.421874-.800781.90625-.445313 3.03125-1.519532 5.910157-3.144532 1.03125.960938 2.328125 1.65625 3.8125 1.941406.648437.125 6.605469 1.226563 14.710937 1.226563 14.300782 0 35.304688-3.429687 45.703125-21.691406 2.121094-3.730469.820313-8.472657-2.910156-10.59375zm0 0" fill="#7c3f2c"/><path d="m287.253906 151.832031v32.710938l-1.367187.125c-12.523438 0-23.484375-8.214844-27.234375-20.15625-7.765625-24.769531-26.828125-42.792969-26.828125-42.792969-57.582031 34.433594-98.238281 0-98.238281 0s-19.0625 18.023438-26.832032 42.792969c-3.75 11.941406-14.707031 20.15625-27.230468 20.15625l-1.367188-1.054688v-31.78125c0-54.03125 43.796875-97.828125 97.824219-97.828125h13.445312c54.03125 0 97.828125 43.796875 97.828125 97.828125zm0 0" fill="#c0694e"/><path d="m200.8125 54.667969c-47.019531 5.46875-83.863281 44.261719-86.265625 92.152343-3.003906 5.3125-5.78125 11.269532-7.792969 17.691407-3.75 11.941406-14.707031 20.15625-27.230468 20.15625l-1.367188-1.054688v-31.78125c0-54.03125 43.796875-97.828125 97.824219-97.828125 13.144531 0 18.296875-.152344 24.832031.664063zm0 0" fill="#ae583e"/><path d="m104.941406 361.054688c-7.042968 4.152343-13.691406 8.929687-19.867187 14.234374 2.394531-7.066406 5.285156-15.601562 8.773437-25.929687 4.496094 4.507813 4.21875 3.90625 11.09375 11.695313zm0 0" fill="#ea552d"/><path d="m93.847656 191.203125v76.769531c-3.582031 1.054688-7.382812 1.625-11.308594 1.625-22.097656 0-40.007812-17.917968-40.007812-40.015625 0-22.09375 17.910156-40.003906 40.007812-40.003906 3.925782 0 7.726563.570313 11.308594 1.625zm0 0" fill="#d6995c"/></svg>