<svg id="Capa_1" enable-background="new 0 0 512 512" height="10" viewBox="0 0 512 512" width="10" xmlns="http://www.w3.org/2000/svg"><g><path d="m446 512h-115l-75-70-75 70h-115c-8.284 0-15-6.716-15-15v-142c0-41.355 33.645-75 75-75h260c41.355 0 75 33.645 75 75v142c0 8.284-6.716 15-15 15z" fill="#5e59ce"/><path d="m461 497v-142c0-41.355-33.645-75-75-75h-130v162l75 70h115c8.284 0 15-6.716 15-15z" fill="#00347b"/><path d="m256 45c-79.953 0-145 125.047-145 205v45c0 4.379 1.913 8.539 5.238 11.389l49.048 42.041c9.986 8.56 15.714 21.013 15.714 34.167v129.403h60l15-20 15 20h60v-129.404c0-13.153 5.728-25.606 15.714-34.167l49.048-42.041c3.325-2.85 5.238-7.01 5.238-11.389v-45c0-79.952-65.047-204.999-145-204.999z" fill="#00347b"/><path d="m346.714 348.43 49.048-42.041c3.325-2.85 5.238-7.01 5.238-11.389v-45c0-79.953-65.047-205-145-205v447l15 20h60v-129.404c0-13.153 5.728-25.606 15.714-34.166z" fill="#03232e"/><path d="m256 270c-8.284 0-15 6.716-15 15v227h30v-227c0-8.284-6.716-15-15-15z" fill="#5e59ce"/><path d="m256 270v242h15v-227c0-8.284-6.716-15-15-15z" fill="#00347b"/><path d="m336 77.672h-160c-8.284 0-15 6.716-15 15v112.328c0 10.402 1.686 20.417 4.79 29.792h180.42c3.104-9.375 4.79-19.389 4.79-29.792v-112.328c0-8.284-6.716-15-15-15z" fill="#9d5e4a"/><path d="m336 77.672h-80v157.12h90.21c3.104-9.375 4.79-19.389 4.79-29.792v-112.328c0-8.284-6.716-15-15-15z" fill="#5c381f"/><path d="m256 0c-79.953 0-145 65.047-145 145v105c0-79.953 65.047-145 145-145s145 65.047 145 145v-105c0-79.953-65.047-145-145-145z" fill="#5e59ce"/><path d="m401 250v-105c0-79.953-65.047-145-145-145v105c79.953 0 145 65.047 145 145z" fill="#00347b"/><path d="m343.766 232.157c-21.913-23.614-53.903-37.157-87.766-37.157s-65.853 13.543-87.766 37.158l-2.445 2.634c12.527 37.834 48.23 65.208 90.211 65.208s77.684-27.374 90.21-65.208z" fill="#2682ff"/><path d="m346.21 234.792-2.445-2.634c-21.912-23.615-53.902-37.158-87.765-37.158v105c41.981 0 77.684-27.374 90.21-65.208z" fill="#5e59ce"/></g></svg>