<svg id="Capa_1" enable-background="new 0 0 512 512" height="512" viewBox="0 0 512 512" width="512" xmlns="http://www.w3.org/2000/svg"><g><path d="m446 512h-380c-8.284 0-15-6.716-15-15v-142c0-41.355 33.645-75 75-75h260c41.355 0 75 33.645 75 75v142c0 8.284-6.716 15-15 15z" fill="#bee75e"/><path d="m386 280h-130v232h190c8.284 0 15-6.716 15-15v-142c0-41.355-33.645-75-75-75z" fill="#00da80"/><path d="m256 45c-80.081 0-145 124.919-145 205v45c0 4.638 2.146 9.015 5.812 11.856l91.856 71.188h94.664l91.856-71.188c3.667-2.841 5.812-7.218 5.812-11.856v-45c0-80.081-64.919-205-145-205z" fill="#5e59ce"/><path d="m256 45v333.045h47.332l91.856-71.188c3.667-2.842 5.812-7.219 5.812-11.857v-45c0-80.081-64.919-205-145-205z" fill="#00347b"/><path d="m256 105-95 71.875v28.125c0 52.383 42.617 95 95 95s95-42.617 95-95v-28.125z" fill="#f2d1a5"/><path d="m351 205v-28.125l-95-71.875v195c52.383 0 95-42.617 95-95z" fill="#faa68f"/><path d="m336 77.672h-160c-8.284 0-15 6.716-15 15v84.203l35.463-4.433c34.013-4.251 59.537-33.165 59.537-67.442 0 34.277 25.524 63.19 59.537 67.442l35.463 4.433v-84.203c0-8.284-6.716-15-15-15z" fill="#fff5f5"/><path d="m356 512h-200c-7.465 0-13.794-5.489-14.849-12.879l-20-140c-1.291-9.036 5.721-17.121 14.849-17.121h240c9.128 0 16.14 8.085 14.849 17.121l-20 140c-1.055 7.39-7.384 12.879-14.849 12.879z" fill="#fff5f5"/><path d="m276 442h-40c-8.284 0-15-6.716-15-15s6.716-15 15-15h40c8.284 0 15 6.716 15 15s-6.716 15-15 15z" fill="#00347b"/><path d="m336 77.672h-80v27.328c0 34.277 25.524 63.19 59.537 67.442l35.463 4.433v-84.203c0-8.284-6.716-15-15-15z" fill="#f3e5cb"/><path d="m370.85 499.121 20-140c1.29-9.036-5.722-17.121-14.85-17.121h-120v170h100c7.465 0 13.794-5.489 14.85-12.879z" fill="#f3e5cb"/><path d="m276 412h-20v30h20c8.284 0 15-6.716 15-15s-6.716-15-15-15z" fill="#03232e"/><path d="m255.589.001c-80.15.223-144.589 66.253-144.589 146.403v103.596c0-80.081 64.919-145 145-145 80.081 0 145 64.919 145 145v-105c0-80.09-65.27-145.223-145.411-144.999z" fill="#bee75e"/><path d="m256 .005v104.995c80.081 0 145 64.919 145 145v-105c0-79.953-65.047-144.995-145-144.995z" fill="#00da80"/></g></svg>